<svg width="20" height="20" viewBox="0 0 20 20" fill="none" xmlns="http://www.w3.org/2000/svg">
<path d="M10 0H11.25V2.5H12.5V3.75H13.75V5H15V6.25H16.25V8.75H13.75V7.5H12.5V8.75H11.25V6.25H10V7.5H8.75V6.25H7.5V8.75H6.25V7.5H5V6.25H6.25V5H7.5V3.75H8.75V2.5H10V0Z" fill="#1A1A1A"/>
<path d="M1.25 2.5H2.5V3.75H1.25V2.5Z" fill="#1A1A1A"/>
<path d="M18.75 2.5H20V3.75H18.75V2.5Z" fill="#1A1A1A"/>
<path d="M2.5 3.75H3.75V5H2.5V3.75Z" fill="#1A1A1A"/>
<path d="M17.5 3.75H18.75V5H17.5V3.75Z" fill="#1A1A1A"/>
<path d="M3.75 5H5V6.25H3.75V5Z" fill="#1A1A1A"/>
<path d="M16.25 5H17.5V6.25H16.25V5Z" fill="#1A1A1A"/>
<path d="M7.5 6.25H8.75V7.5H10V6.25H11.25V8.75H12.5V7.5H13.75V8.75H16.25V10H17.5V11.25H18.75V16.25H17.5V17.5H15V18.75H5V17.5H2.5V16.25H1.25V11.25H2.5V10H3.75V8.75H5V7.5H6.25V8.75H7.5V6.25Z" fill="white"/>
<path d="M3.75 7.5H5V8.75H3.75V7.5Z" fill="#1A1A1A"/>
<path d="M2.5 8.75H3.75V10H2.5V8.75Z" fill="#1A1A1A"/>
<path d="M8.75 8.75H10V11.25H8.75V8.75Z" fill="#1A1A1A"/>
<path d="M16.25 8.75H17.5V10H16.25V8.75Z" fill="#1A1A1A"/>
<path d="M1.25 10H2.5V11.25H1.25V10Z" fill="#1A1A1A"/>
<path d="M3.75 10H5V11.25H3.75V10Z" fill="#1A1A1A"/>
<path d="M13.75 10H15V11.25H13.75V10Z" fill="#1A1A1A"/>
<path d="M17.5 10H18.75V11.25H17.5V10Z" fill="#1A1A1A"/>
<path d="M0 11.25H1.25V16.25H0V11.25Z" fill="#1A1A1A"/>
<path d="M5 11.25H7.5V12.5H5V11.25Z" fill="#1A1A1A"/>
<path d="M11.25 11.25H13.75V12.5H11.25V11.25Z" fill="#1A1A1A"/>
<path d="M18.75 11.25H20V16.25H18.75V11.25Z" fill="#1A1A1A"/>
<path d="M7.5 13.75H11.25V15H7.5V13.75Z" fill="#1A1A1A"/>
<path d="M6.25 15H7.5V16.25H6.25V15Z" fill="#1A1A1A"/>
<path d="M11.25 15H12.5V16.25H11.25V15Z" fill="#1A1A1A"/>
<path d="M1.25 16.25H2.5V17.5H1.25V16.25Z" fill="#1A1A1A"/>
<path d="M17.5 16.25H18.75V17.5H17.5V16.25Z" fill="#1A1A1A"/>
<path d="M2.5 17.5H5V18.75H2.5V17.5Z" fill="#1A1A1A"/>
<path d="M15 17.5H17.5V18.75H15V17.5Z" fill="#1A1A1A"/>
<path d="M5 18.75H15V20H5V18.75Z" fill="#1A1A1A"/>
</svg>
