<svg width="20" height="20" viewBox="0 0 20 20" fill="none" xmlns="http://www.w3.org/2000/svg">
<path d="M0 0H3.75V1.25H1.25V5H0V0Z" fill="#1A1A1A"/>
<path d="M16.25 0H20V5H18.75V1.25H16.25V0Z" fill="#1A1A1A"/>
<path d="M1.25 1.25H3.75V2.5H5V3.75H3.75V5H1.25V1.25Z" fill="white"/>
<path d="M3.75 1.25H5V2.5H3.75V1.25Z" fill="#1A1A1A"/>
<path d="M15 1.25H16.25V6.25H15V5H13.75V3.75H15V1.25Z" fill="#1A1A1A"/>
<path d="M16.25 1.25H18.75V5H17.5V6.25H16.25V1.25Z" fill="white"/>
<path d="M5 2.5H13.75V3.75H5V2.5Z" fill="#1A1A1A"/>
<path d="M3.75 3.75H5V5H3.75V3.75Z" fill="#1A1A1A"/>
<path d="M5 3.75H13.75V5H15V6.25H16.25V7.5H17.5V12.5H16.25V15H13.75V16.25H6.25V15H3.75V12.5H2.5V7.5H3.75V5H5V3.75Z" fill="white"/>
<path d="M1.25 5H3.75V7.5H2.5V6.25H1.25V5Z" fill="#1A1A1A"/>
<path d="M8.75 5H10V6.25H8.75V5Z" fill="#1A1A1A"/>
<path d="M11.25 5H12.5V6.25H11.25V5Z" fill="#1A1A1A"/>
<path d="M17.5 5H18.75V6.25H17.5V5Z" fill="#1A1A1A"/>
<path d="M16.25 6.25H17.5V7.5H16.25V6.25Z" fill="#1A1A1A"/>
<path d="M1.25 7.5H2.5V12.5H1.25V7.5Z" fill="#1A1A1A"/>
<path d="M8.75 7.5H12.5V10H11.25V12.5H13.75V13.75H7.5V12.5H10V10H8.75V7.5Z" fill="#1A1A1A"/>
<path d="M17.5 7.5H18.75V12.5H17.5V7.5Z" fill="#1A1A1A"/>
<path d="M6.25 11.25H7.5V12.5H6.25V11.25Z" fill="#1A1A1A"/>
<path d="M13.75 11.25H15V12.5H13.75V11.25Z" fill="#1A1A1A"/>
<path d="M2.5 12.5H3.75V15H1.25V13.75H2.5V12.5Z" fill="#1A1A1A"/>
<path d="M16.25 12.5H17.5V13.75H18.75V15H16.25V12.5Z" fill="#1A1A1A"/>
<path d="M0 15H1.25V16.25H0V15Z" fill="#1A1A1A"/>
<path d="M1.25 15H3.75V16.25H6.25V17.5H13.75V16.25H16.25V15H18.75V16.25H17.5V17.5H15V18.75H5V17.5H2.5V16.25H1.25V15Z" fill="white"/>
<path d="M3.75 15H6.25V16.25H3.75V15Z" fill="#1A1A1A"/>
<path d="M13.75 15H16.25V16.25H13.75V15Z" fill="#1A1A1A"/>
<path d="M18.75 15H20V16.25H18.75V15Z" fill="#1A1A1A"/>
<path d="M1.25 16.25H2.5V17.5H1.25V16.25Z" fill="#1A1A1A"/>
<path d="M6.25 16.25H13.75V17.5H6.25V16.25Z" fill="#1A1A1A"/>
<path d="M17.5 16.25H18.75V17.5H17.5V16.25Z" fill="#1A1A1A"/>
<path d="M2.5 17.5H5V18.75H2.5V17.5Z" fill="#1A1A1A"/>
<path d="M15 17.5H17.5V18.75H15V17.5Z" fill="#1A1A1A"/>
<path d="M5 18.75H15V20H5V18.75Z" fill="#1A1A1A"/>
</svg>
