<svg width="20" height="20" viewBox="0 0 20 20" fill="none" xmlns="http://www.w3.org/2000/svg">
<path d="M10 0H11.25V1.25H12.5V2.5H13.75V3.75H15V5H16.25V7.5H13.75V6.25H12.5V7.5H11.25V5H10V6.25H8.75V5H7.5V7.5H6.25V6.25H5V5H6.25V3.75H7.5V2.5H8.75V1.25H10V0Z" fill="#1A1A1A"/>
<path d="M7.5 5H8.75V6.25H10V5H11.25V7.5H12.5V6.25H13.75V7.5H16.25V8.75H17.5V10H18.75V15H17.5V16.25H15V17.5H5V16.25H2.5V15H1.25V10H2.5V8.75H3.75V7.5H5V6.25H6.25V7.5H7.5V5Z" fill="white"/>
<path d="M3.75 6.25H5V7.5H3.75V6.25Z" fill="#1A1A1A"/>
<path d="M2.5 7.5H3.75V8.75H2.5V7.5Z" fill="#1A1A1A"/>
<path d="M16.25 7.5H17.5V8.75H16.25V7.5Z" fill="#1A1A1A"/>
<path d="M1.25 8.75H2.5V10H1.25V8.75Z" fill="#1A1A1A"/>
<path d="M6.25 8.75H7.5V10H6.25V8.75Z" fill="#1A1A1A"/>
<path d="M11.25 8.75H12.5V10H11.25V8.75Z" fill="#1A1A1A"/>
<path d="M17.5 8.75H18.75V10H17.5V8.75Z" fill="#1A1A1A"/>
<path d="M0 10H1.25V15H0V10Z" fill="#1A1A1A"/>
<path d="M5 10H6.25V11.25H5V10Z" fill="#1A1A1A"/>
<path d="M12.5 10H13.75V11.25H12.5V10Z" fill="#1A1A1A"/>
<path d="M18.75 10H20V15H18.75V10Z" fill="#1A1A1A"/>
<path d="M3.75 11.25H5V12.5H3.75V11.25Z" fill="#1A1A1A"/>
<path d="M8.75 11.25H10V12.5H8.75V11.25Z" fill="#1A1A1A"/>
<path d="M13.75 11.25H15V12.5H13.75V11.25Z" fill="#1A1A1A"/>
<path d="M7.5 12.5H8.75V13.75H7.5V12.5Z" fill="#1A1A1A"/>
<path d="M10 12.5H11.25V13.75H10V12.5Z" fill="#1A1A1A"/>
<path d="M6.25 13.75H7.5V15H6.25V13.75Z" fill="#1A1A1A"/>
<path d="M11.25 13.75H12.5V15H11.25V13.75Z" fill="#1A1A1A"/>
<path d="M1.25 15H2.5V16.25H1.25V15Z" fill="#1A1A1A"/>
<path d="M17.5 15H18.75V16.25H17.5V15Z" fill="#1A1A1A"/>
<path d="M2.5 16.25H5V17.5H2.5V16.25Z" fill="#1A1A1A"/>
<path d="M15 16.25H17.5V17.5H15V16.25Z" fill="#1A1A1A"/>
<path d="M5 17.5H15V18.75H5V17.5Z" fill="#1A1A1A"/>
</svg>
