<svg width="20" height="20" viewBox="0 0 20 20" fill="none" xmlns="http://www.w3.org/2000/svg">
<path d="M16.25 0H20V3.75H17.5V2.5H16.25V0Z" fill="#1A1A1A"/>
<path d="M8.75 2.5H10V5H8.75V7.5H11.25V8.75H10V10H8.75V11.25H7.5V12.5H6.25V13.75H5V15H3.75V13.75H2.5V15H3.75V16.25H5V17.5H6.25V16.25H5V15H6.25V13.75H7.5V12.5H8.75V11.25H10V12.5H13.75V13.75H12.5V15H10V16.25H8.75V20H1.25V18.75H0V11.25H2.5V10H5V8.75H6.25V5H7.5V3.75H8.75V2.5Z" fill="#1A1A1A"/>
<path d="M15 2.5H16.25V3.75H15V2.5Z" fill="#1A1A1A"/>
<path d="M13.75 3.75H15V5H13.75V3.75Z" fill="#1A1A1A"/>
<path d="M16.25 3.75H17.5V5H16.25V3.75Z" fill="#1A1A1A"/>
<path d="M12.5 5H13.75V6.25H12.5V5Z" fill="#1A1A1A"/>
<path d="M15 5H16.25V6.25H15V5Z" fill="#1A1A1A"/>
<path d="M11.25 6.25H12.5V7.5H11.25V6.25Z" fill="#1A1A1A"/>
<path d="M13.75 6.25H15V7.5H13.75V6.25Z" fill="#1A1A1A"/>
<path d="M12.5 7.5H13.75V8.75H12.5V7.5Z" fill="#1A1A1A"/>
<path d="M11.25 8.75H12.5V10H11.25V8.75Z" fill="#1A1A1A"/>
<path d="M10 10H11.25V11.25H10V10Z" fill="#1A1A1A"/>
</svg>
