<svg width="20" height="20" viewBox="0 0 20 20" fill="none" xmlns="http://www.w3.org/2000/svg">
<path d="M7.5 0H15V10H13.75V11.25H10V8.75H12.5V7.5H13.75V3.75H11.25V2.5H13.75V1.25H8.75V8.75H7.5V10H3.75V7.5H6.25V6.25H7.5V0Z" fill="#1A1A1A"/>
<path d="M3.75 12.5H16.25V13.75H18.75V15H13.75V16.25H16.25V17.5H18.75V18.75H16.25V20H2.5V18.75H1.25V17.5H2.5V16.25H5V15H1.25V13.75H3.75V12.5Z" fill="#1A1A1A"/>
<path d="M0 15H1.25V17.5H0V15Z" fill="#1A1A1A"/>
<path d="M1.25 15H5V16.25H2.5V17.5H1.25V15Z" fill="white"/>
<path d="M13.75 15H18.75V17.5H16.25V16.25H13.75V15Z" fill="white"/>
<path d="M18.75 15H20V17.5H18.75V15Z" fill="#1A1A1A"/>
<path d="M7.5 16.25H11.25V17.5H12.5V18.75H6.25V17.5H7.5V16.25Z" fill="white"/>
</svg>
