<svg width="20" height="20" viewBox="0 0 20 20" fill="none" xmlns="http://www.w3.org/2000/svg">
<path d="M10 0H11.25V2.5H12.5V3.75H15V2.5H16.25V6.25H17.5V8.75H16.25V7.5H15V8.75H13.75V7.5H11.25V6.25H10V7.5H8.75V6.25H7.5V8.75H6.25V7.5H5V8.75H2.5V7.5H3.75V6.25H5V2.5H6.25V3.75H8.75V2.5H10V0Z" fill="#1A1A1A"/>
<path d="M3.75 1.25H5V2.5H3.75V1.25Z" fill="#1A1A1A"/>
<path d="M16.25 1.25H17.5V2.5H16.25V1.25Z" fill="#1A1A1A"/>
<path d="M7.5 6.25H8.75V7.5H10V6.25H11.25V7.5H13.75V8.75H15V7.5H16.25V8.75H17.5V11.25H18.75V16.25H17.5V17.5H15V18.75H5V17.5H2.5V16.25H1.25V11.25H2.5V8.75H5V7.5H6.25V8.75H7.5V6.25Z" fill="white"/>
<path d="M1.25 8.75H2.5V11.25H1.25V8.75Z" fill="#1A1A1A"/>
<path d="M17.5 8.75H18.75V11.25H17.5V8.75Z" fill="#1A1A1A"/>
<path d="M5 10H7.5V12.5H5V10Z" fill="#1A1A1A"/>
<path d="M11.25 10H13.75V12.5H11.25V10Z" fill="#1A1A1A"/>
<path d="M0 11.25H1.25V16.25H0V11.25Z" fill="#1A1A1A"/>
<path d="M18.75 11.25H20V16.25H18.75V11.25Z" fill="#1A1A1A"/>
<path d="M2.5 12.5H3.75V13.75H2.5V12.5Z" fill="#1A1A1A"/>
<path d="M15 12.5H16.25V13.75H15V12.5Z" fill="#1A1A1A"/>
<path d="M5 13.75H6.25V15H5V13.75Z" fill="#1A1A1A"/>
<path d="M12.5 13.75H13.75V15H12.5V13.75Z" fill="#1A1A1A"/>
<path d="M6.25 15H12.5V16.25H6.25V15Z" fill="#1A1A1A"/>
<path d="M1.25 16.25H2.5V17.5H1.25V16.25Z" fill="#1A1A1A"/>
<path d="M17.5 16.25H18.75V17.5H17.5V16.25Z" fill="#1A1A1A"/>
<path d="M2.5 17.5H5V18.75H2.5V17.5Z" fill="#1A1A1A"/>
<path d="M15 17.5H17.5V18.75H15V17.5Z" fill="#1A1A1A"/>
<path d="M5 18.75H15V20H5V18.75Z" fill="#1A1A1A"/>
</svg>
