<svg width="20" height="20" viewBox="0 0 20 20" fill="none" xmlns="http://www.w3.org/2000/svg">
<path d="M1.25 0H6.25V1.25H7.5V3.75H12.5V1.25H13.75V0H18.75V1.25H15V2.5H13.75V5H12.5V7.5H11.25V5H8.75V7.5H7.5V5H6.25V2.5H5V1.25H1.25V0Z" fill="#1A1A1A"/>
<path d="M0 1.25H1.25V5H0V1.25Z" fill="#1A1A1A"/>
<path d="M1.25 1.25H5V2.5H6.25V5H7.5V7.5H8.75V5H11.25V7.5H12.5V5H13.75V2.5H15V5H17.5V6.25H16.25V7.5H17.5V10H15V11.25H13.75V12.5H15V13.75H17.5V12.5H15V11.25H17.5V10H18.75V15H16.25V16.25H13.75V17.5H5V16.25H2.5V15H1.25V10H2.5V7.5H3.75V6.25H5V3.75H3.75V2.5H2.5V5H1.25V1.25Z" fill="white"/>
<path d="M15 1.25H18.75V5H17.5V2.5H15V1.25Z" fill="white"/>
<path d="M18.75 1.25H20V5H18.75V1.25Z" fill="#1A1A1A"/>
<path d="M2.5 2.5H3.75V3.75H5V6.25H3.75V5H2.5V2.5Z" fill="#1A1A1A"/>
<path d="M15 2.5H17.5V5H15V2.5Z" fill="#1A1A1A"/>
<path d="M1.25 5H2.5V6.25H1.25V5Z" fill="#1A1A1A"/>
<path d="M2.5 5H3.75V6.25H2.5V5Z" fill="white"/>
<path d="M17.5 5H18.75V6.25H17.5V5Z" fill="#1A1A1A"/>
<path d="M2.5 6.25H3.75V7.5H2.5V6.25Z" fill="#1A1A1A"/>
<path d="M16.25 6.25H17.5V7.5H16.25V6.25Z" fill="#1A1A1A"/>
<path d="M1.25 7.5H2.5V10H1.25V7.5Z" fill="#1A1A1A"/>
<path d="M17.5 7.5H18.75V10H17.5V7.5Z" fill="#1A1A1A"/>
<path d="M7.5 8.75H8.75V10H7.5V8.75Z" fill="#1A1A1A"/>
<path d="M10 8.75H11.25V10H10V8.75Z" fill="#1A1A1A"/>
<path d="M0 10H1.25V15H0V10Z" fill="#1A1A1A"/>
<path d="M2.5 10H5V11.25H2.5V10Z" fill="#1A1A1A"/>
<path d="M15 10H17.5V11.25H15V10Z" fill="#1A1A1A"/>
<path d="M18.75 10H20V15H18.75V10Z" fill="#1A1A1A"/>
<path d="M5 11.25H6.25V12.5H5V11.25Z" fill="#1A1A1A"/>
<path d="M7.5 11.25H11.25V12.5H10V13.75H8.75V12.5H7.5V11.25Z" fill="#1A1A1A"/>
<path d="M13.75 11.25H15V12.5H13.75V11.25Z" fill="#1A1A1A"/>
<path d="M2.5 12.5H5V13.75H2.5V12.5Z" fill="#1A1A1A"/>
<path d="M15 12.5H17.5V13.75H15V12.5Z" fill="#1A1A1A"/>
<path d="M6.25 13.75H7.5V15H6.25V13.75Z" fill="#1A1A1A"/>
<path d="M11.25 13.75H12.5V15H11.25V13.75Z" fill="#1A1A1A"/>
<path d="M1.25 15H2.5V16.25H1.25V15Z" fill="#1A1A1A"/>
<path d="M7.5 15H11.25V16.25H7.5V15Z" fill="#1A1A1A"/>
<path d="M16.25 15H18.75V16.25H16.25V15Z" fill="#1A1A1A"/>
<path d="M2.5 16.25H5V17.5H2.5V16.25Z" fill="#1A1A1A"/>
<path d="M13.75 16.25H16.25V17.5H13.75V16.25Z" fill="#1A1A1A"/>
<path d="M5 17.5H13.75V18.75H5V17.5Z" fill="#1A1A1A"/>
</svg>
