<svg width="270" height="331" viewBox="0 0 270 331" fill="none" xmlns="http://www.w3.org/2000/svg">
<path fill-rule="evenodd" clip-rule="evenodd" d="M106.393 18.5C108.326 18.5 109.893 16.933 109.893 15C109.893 13.067 108.326 11.5 106.393 11.5C104.46 11.5 102.893 13.067 102.893 15C102.893 16.933 104.46 18.5 106.393 18.5ZM106.393 20C109.155 20 111.393 17.7614 111.393 15C111.393 12.2386 109.155 10 106.393 10C103.632 10 101.393 12.2386 101.393 15C101.393 17.7614 103.632 20 106.393 20Z" fill="black"/>
<path fill-rule="evenodd" clip-rule="evenodd" d="M103.393 23.75C101.046 23.75 99.1434 25.6528 99.1434 28V29C99.1434 29.4142 98.8077 29.75 98.3934 29.75C97.9792 29.75 97.6434 29.4142 97.6434 29V28C97.6434 24.8244 100.218 22.25 103.393 22.25H109.393C112.569 22.25 115.143 24.8244 115.143 28V29C115.143 29.4142 114.808 29.75 114.393 29.75C113.979 29.75 113.643 29.4142 113.643 29V28C113.643 25.6528 111.741 23.75 109.393 23.75H103.393Z" fill="black"/>
<path fill-rule="evenodd" clip-rule="evenodd" d="M51.8954 15.0001L56.294 10.7848C57.3577 9.76541 59.0358 9.76541 60.0995 10.7848L64.4981 15.0001H67.0437C67.6523 15.0001 68.1197 15.5391 68.0337 16.1415L66.5647 26.4244C66.3536 27.9023 65.0878 29.0001 63.5948 29.0001H52.7986C51.3057 29.0001 50.0399 27.9023 49.8288 26.4244L48.3598 16.1415C48.2737 15.5391 48.7412 15.0001 49.3497 15.0001H51.8954ZM57.3318 11.8678C57.8153 11.4044 58.5781 11.4044 59.0616 11.8678L62.3301 15.0001H54.0633L57.3318 11.8678ZM49.9262 16.5001L51.3137 26.2122C51.4193 26.9512 52.0521 27.5001 52.7986 27.5001H63.5948C64.3413 27.5001 64.9742 26.9512 65.0798 26.2122L66.4672 16.5001H49.9262Z" fill="black"/>
<path fill-rule="evenodd" clip-rule="evenodd" d="M54.1967 19.25C54.6109 19.25 54.9467 19.5858 54.9467 20V24C54.9467 24.4142 54.6109 24.75 54.1967 24.75C53.7825 24.75 53.4467 24.4142 53.4467 24V20C53.4467 19.5858 53.7825 19.25 54.1967 19.25Z" fill="black"/>
<path fill-rule="evenodd" clip-rule="evenodd" d="M58.1967 19.25C58.6109 19.25 58.9467 19.5858 58.9467 20V24C58.9467 24.4142 58.6109 24.75 58.1967 24.75C57.7825 24.75 57.4467 24.4142 57.4467 24V20C57.4467 19.5858 57.7825 19.25 58.1967 19.25Z" fill="black"/>
<path fill-rule="evenodd" clip-rule="evenodd" d="M62.1967 19.25C62.6109 19.25 62.9467 19.5858 62.9467 20V24C62.9467 24.4142 62.6109 24.75 62.1967 24.75C61.7825 24.75 61.4467 24.4142 61.4467 24V20C61.4467 19.5858 61.7825 19.25 62.1967 19.25Z" fill="black"/>
<path fill-rule="evenodd" clip-rule="evenodd" d="M15.8723 24.8116C17.1996 23.2436 18 21.2153 18 19C18 14.0294 13.9706 10 9 10C4.02944 10 0 14.0294 0 19C0 23.9706 4.02944 28 9 28C11.2153 28 13.2436 27.1996 14.8116 25.8723L17.4697 28.5303C17.7626 28.8232 18.2374 28.8232 18.5303 28.5303C18.8232 28.2374 18.8232 27.7626 18.5303 27.4697L15.8723 24.8116ZM16.5 19C16.5 23.1421 13.1421 26.5 9 26.5C4.85786 26.5 1.5 23.1421 1.5 19C1.5 14.8579 4.85786 11.5 9 11.5C13.1421 11.5 16.5 14.8579 16.5 19Z" fill="black"/>
<path d="M68.8197 14C72.6223 14 75.7049 10.866 75.7049 7C75.7049 3.13401 72.6223 0 68.8197 0C65.0171 0 61.9344 3.13401 61.9344 7C61.9344 10.866 65.0171 14 68.8197 14Z" fill="#EA0025"/>
<path d="M66.3789 10.2699C67.2255 9.58989 67.8889 9.03322 68.3689 8.59989C68.8489 8.15989 69.2522 7.70322 69.5789 7.22989C69.9122 6.74989 70.0789 6.27989 70.0789 5.81989C70.0789 5.38656 69.9722 5.04656 69.7589 4.79989C69.5522 4.54656 69.2155 4.41989 68.7489 4.41989C68.2955 4.41989 67.9422 4.56322 67.6889 4.84989C67.4422 5.12989 67.3089 5.50656 67.2889 5.97989H66.4089C66.4355 5.23322 66.6622 4.65656 67.0889 4.24989C67.5155 3.84322 68.0655 3.63989 68.7389 3.63989C69.4255 3.63989 69.9689 3.82989 70.3689 4.20989C70.7755 4.58989 70.9789 5.11322 70.9789 5.77989C70.9789 6.33322 70.8122 6.87322 70.4789 7.39989C70.1522 7.91989 69.7789 8.37989 69.3589 8.77989C68.9389 9.17322 68.4022 9.63322 67.7489 10.1599H71.1889V10.9199H66.3789V10.2699Z" fill="white"/>
<path d="M17.5 85C27.165 85 35 77.165 35 67.5C35 57.835 27.165 50 17.5 50C7.83502 50 0 57.835 0 67.5C0 77.165 7.83502 85 17.5 85Z" fill="black"/>
<path d="M19.5583 73.6458L19.5424 66.8987L15.5585 66.7646L15.0837 73.5C14.721 73.565 14.4504 73.8708 14.4289 74.2392L13.9702 78.3997C13.9136 78.9231 14.229 79.3812 14.6517 79.3955L19.5906 79.5593C20.0158 79.5712 20.3537 79.1424 20.34 78.6093L20.1764 74.4424C20.1861 74.064 19.9279 73.7312 19.5587 73.6458H19.5583Z" fill="white"/>
<path d="M21.2753 59.9894L14.668 59.7572C14.4037 59.7501 14.1568 59.6258 13.9935 59.4184C13.6562 58.9632 13.1286 58.6882 12.5619 58.6722C11.5282 58.6386 10.6618 59.4484 10.6258 60.482L10.5471 62.8191C10.5153 63.8522 11.324 64.7172 12.357 64.7551C12.9218 64.7753 13.4642 64.5377 13.8331 64.1093C14.0094 63.9128 14.2653 63.8053 14.5288 63.8166C14.6758 63.8215 14.8147 63.8845 14.9151 63.9918C15.0154 64.0991 15.069 64.2421 15.064 64.3891L15.0169 65.7884L20.1476 65.9611L20.1878 64.5495C20.1922 64.4031 20.2552 64.2642 20.3619 64.1644C20.4686 64.0646 20.6115 64.0111 20.7578 64.0166L24.771 64.1518L24.7777 63.7361C24.8082 62.7759 24.4572 61.8417 23.8005 61.1392C23.1439 60.4368 22.2354 60.0236 21.2753 59.9895V59.9894Z" fill="white"/>
<rect x="7.5" y="100" width="34" height="19" fill="#E9E9E9"/>
<path d="M0 109.5H24M24 109.5L17 102.5M24 109.5L17 116.5" stroke="#3D3D3F" stroke-width="1.5"/>
</svg>
