<svg width="20" height="20" viewBox="0 0 20 20" fill="none" xmlns="http://www.w3.org/2000/svg">
<path d="M2.5 0H17.5V11.25H20V20H0V11.25H2.5V0Z" fill="#1A1A1A"/>
<path d="M3.75 1.25H16.25V11.25H3.75V1.25Z" fill="white"/>
<path d="M5 2.5H15V10H5V2.5Z" fill="#1A1A1A"/>
<path d="M6.25 3.75H7.5V6.25H6.25V3.75Z" fill="white"/>
<path d="M6.25 7.5H7.5V8.75H6.25V7.5Z" fill="white"/>
<path d="M1.25 12.5H18.75V17.5H17.5V16.25H16.25V17.5H15V16.25H13.75V17.5H12.5V16.25H11.25V17.5H10V16.25H8.75V17.5H7.5V16.25H6.25V17.5H5V16.25H3.75V17.5H2.5V16.25H1.25V12.5Z" fill="white"/>
<path d="M12.5 13.75H17.5V15H12.5V13.75Z" fill="#1A1A1A"/>
</svg>
